#format: frame checksums
#version: 2
#hash: MD5
#tb 0: 1/96000
#media_type 0: audio
#codec_id 0: pcm_s16le
#sample_rate 0: 96000
#channel_layout 0: 60f
#channel_layout_name 0: 5.1(side)
#stream#, dts,        pts, duration,     size, hash
0,          0,          0,      341,     4092, 697cddfcd0e21f24782af0705b7048f3
0,        341,        341,      341,     4092, a057b18cd493923fed33c18578f61e0b
0,        683,        683,      341,     4092, f4eacfd888566040067b8e5ce7d276c6
0,       1024,       1024,      341,     4092, 4de78d332ce2047014880a110c160dc2
0,       1364,       1364,      341,     4092, 138ee3fc206538feca6de3d6d62d08eb
0,       1706,       1706,      341,     4092, 187a2f2998aa1c0ba0130c57dd1d6c86
0,       2047,       2047,      341,     4092, 54e6c3db8a5f8c09b47f025659a36b17
0,       2387,       2387,      341,     4092, 8abfdf44a24c158429c71e01cee31e20
0,       2729,       2729,      341,     4092, bd08f5018edc5dc4520739e913ed89a3
0,       3070,       3070,      341,     4092, 9f60ba4275646344e4a9b3c647efffe9
0,       3411,       3411,      341,     4092, 00cefc1f27230cdd06ecd43132e16327
0,       3751,       3751,      341,     4092, d4d13047cd639ed722a4ae1bc1f06991
0,       4093,       4093,      341,     4092, 16b227e4f968c11cba279506f00d5172
0,       4434,       4434,      341,     4092, 70f4046f709fdd4d80e2f2ffc862f21a
0,       4774,       4774,      341,     4092, adbef4b4ef728f0c2a31b4b0baba50a0
0,       5116,       5116,      341,     4092, fe009b6cc96b9d1098dcc5fba0e6b3fa
0,       5457,       5457,      341,     4092, 4462b2f1654c9b31fdd7ab04ffb84192
0,       5797,       5797,      341,     4092, 2e96ba3bd13de03f9cfdc2b8c3ea0620
0,       6139,       6139,      341,     4092, 395c920f10cce6670029a98095eba027
0,       6480,       6480,      341,     4092, 28d4c2f6364f31cb61f4aa144badc734
